<?xml version="1.0" standalone="no"?>
<!DOCTYPE svg PUBLIC "-//W3C//DTD SVG 20010904//EN"
 "http://www.w3.org/TR/2001/REC-SVG-20010904/DTD/svg10.dtd">
<svg version="1.0" xmlns="http://www.w3.org/2000/svg"
 width="700.000000pt" height="700.000000pt" viewBox="0 0 700.000000 700.000000"
 preserveAspectRatio="xMidYMid meet">
<metadata>
Created by potrace 1.14, written by Peter Selinger 2001-2017
</metadata>
<g transform="translate(0.000000,700.000000) scale(0.100000,-0.100000)"
fill="#000000" stroke="none">
<path d="M2895 6570 c-280 -76 -606 -165 -724 -196 -233 -63 -265 -79 -277
-140 -8 -41 9 -87 40 -107 17 -12 226 -72 474 -137 l42 -11 0 -459 0 -459
-542 -3 -543 -3 -57 -28 c-70 -34 -131 -101 -155 -170 -17 -50 -18 -155 -18
-2192 l0 -2140 24 -53 c30 -66 113 -144 177 -166 43 -14 247 -16 2164 -16
1917 0 2121 2 2164 16 64 22 147 100 177 166 l24 53 0 2140 c0 2037 -1 2142
-18 2192 -24 69 -85 136 -155 170 l-57 28 -592 3 -593 3 0 459 c0 253 2 460 5
460 2 0 113 30 247 66 193 52 249 71 270 92 51 47 45 122 -12 163 -33 24
-1467 409 -1517 408 -21 -1 -267 -63 -548 -139z m127 -3492 c3 -946 5 -1017
22 -1078 68 -241 211 -350 461 -350 263 1 395 102 461 355 16 65 18 144 21
1078 l4 1007 420 0 420 0 -4 -1037 c-4 -1114 -3 -1083 -57 -1278 -27 -101
-106 -268 -164 -349 -237 -332 -638 -491 -1190 -473 -321 10 -553 74 -755 207
-296 195 -450 488 -481 917 -5 77 -10 555 -10 1076 l0 937 425 0 424 0 3
-1012z"/>
</g>
</svg>
