<svg width="1385" height="2048" version="1.2" viewBox="0 0 1038.7 1536" xmlns="http://www.w3.org/2000/svg" zoomAndPan="magnify">
  <defs></defs>
  <g transform="translate(-248.58 23.084)">
    <g transform="matrix(3.688 0 0 3.688 -243.83 177.8)" stroke-width="6.6207">
      <path d="m330.94-6.8974v81.964h-119.17v-81.964l57.931 22.987c1.0688 0.39081 2.2415 0.39081 3.3104 0z" fill="#393f4b"/>
      <path d="m364.04-7.6919c0.0836 3.0275-1.9573 5.7027-4.8993 6.4221l-8.3421 2.251-19.862 5.3628-57.931 15.559c-1.0876 0.26474-2.2228 0.26474-3.3104 0l-57.931-15.559-28.204-7.6138c-2.9455-0.7382-5.0112-3.3855-5.0112-6.4221 0-3.0366 2.0657-5.6839 5.0112-6.4221l86.135-23.172c1.0876-0.26474 2.2228-0.26474 3.3104 0l77.793 20.921 8.3421 2.251c2.942 0.71937 4.9829 3.3946 4.8993 6.4221z" fill="#464f5e"/>
      <path d="m369.01 38.984c-1.2181 1.8497-3.2804 2.9679-5.4952 2.9793-1.3017 0.0152-2.5754-0.37838-3.6414-1.1255-5.6743-3.7404-9.0838-10.087-9.0704-16.883v-22.974l8.3421-2.251c2.942-0.71936 4.9829-3.3946 4.8993-6.4221v31.647c7.5e-4 2.3736 1.1952 4.5876 3.1779 5.8924 1.4592 0.96596 2.47 2.4768 2.806 4.1942 0.336 1.7174-0.0311 3.4977-1.0184 4.9424z" fill="#edc100"/>
    </g>
    <g>
      <path d="m1219.8 1450.3h-903.64c-37.223 0-67.551-30.34-67.551-67.578v-912.59c0-37.238 30.328-67.578 67.551-67.578h903.64c37.223 0 67.551 30.34 67.551 67.578v912.59c0 37.238-30.328 67.578-67.551 67.578z" fill="#2e618a"/>
      <g fill="#f0f0f0">
        <g transform="translate(407.34 1295.4)">
          <path d="m651.95-680.34v409.5c0 89.043-25.203 158-75.609 206.86-50.406 48.867-123.08 73.297-218.02 73.297-92.762 0-164.04-23.734-213.84-71.203-49.793-47.469-74.687-115.72-74.687-204.77v-413.69h184.75v399.27c0 48.086 8.9922 82.984 26.984 104.7 18 21.719 44.531 32.578 79.594 32.578 37.539 0 64.766-10.781 81.672-32.344s25.359-56.852 25.359-105.88v-398.33z"/>
        </g>
      </g>
    </g>
  </g>
</svg>
